# xmcd
#
# Track frame offsets: 
#        150
#        22190
#        42665
#        62373
#        85718
#        122060
#        142585
#        165620
#        185735
#        202348
#
# Disc length: 3059 seconds
#
# Revision: 3
# Processed by: cddbd v1.5.2PL0 Copyright (c) Steve Scherf et al.
# Submitted via: ExactAudioCopy v1.1
#
DISCID=8b0bf10a
DTITLE=Rea, Chris - The Road To Hell
DYEAR=1989
DGENRE=Rock
TTITLE0=The Road To Hell (Part One)
TTITLE1=The Road To Hell (Part Two)
TTITLE2=You Must Be Evil
TTITLE3=Texas
TTITLE4=Looking For A Rainbow
TTITLE5=Your Warm And Tender Love
TTITLE6=Daytona
TTITLE7=That's What They Always Say
TTITLE8=I Just Wanna Be With You
TTITLE9=Tell Me There's A Heaven
EXTD=YEAR: 1989
EXTT0=
EXTT1=
EXTT2=
EXTT3=
EXTT4=
EXTT5=
EXTT6=
EXTT7=
EXTT8=
EXTT9=
PLAYORDER=
